HIERARCHY
ROOT wineglass3
{
	OFFSET 0.000000 0.000000 0.000000
	CHANNELS 6 Xposition Yposition Zposition Yrotation Xrotation Zrotation
	End Site
	{
		OFFSET 0.000000 0.000000 0.000000
	}
}
MOTION
Frames: 122
Frame Time: 0.008333334
2.999464 3.764301 4.086544 167.219900 5.000961 4.430980 
2.999504 3.764178 4.086795 167.216500 5.008759 4.344863 
2.999643 3.764386 4.086978 167.176800 5.053278 4.313604 
2.999885 3.764371 4.087082 167.158300 5.068746 4.313036 
3.000283 3.764117 4.087153 167.125600 5.054758 4.293122 
3.000478 3.764070 4.086982 167.121800 5.059340 4.333528 
3.000724 3.763888 4.086885 167.152700 5.016702 4.348488 
3.000388 3.764117 4.087178 167.125100 5.060597 4.295979 
3.000050 3.764252 4.087530 167.151200 5.044858 4.357271 
2.999640 3.764382 4.087172 167.194500 5.033658 4.349883 
2.999264 3.764513 4.087333 167.178800 5.043080 4.337906 
2.998911 3.764528 4.087472 167.191800 5.052011 4.271222 
2.998396 3.764583 4.087582 167.149300 5.046254 4.294126 
2.998698 3.764812 4.087585 167.166800 5.045830 4.237019 
2.998917 3.764680 4.087424 167.172000 5.055363 4.258579 
2.998871 3.764525 4.087720 167.181000 5.038278 4.287272 
2.999101 3.764714 4.087579 167.150300 5.006221 4.236217 
2.999102 3.764524 4.087498 167.173600 5.020648 4.302303 
2.998877 3.764646 4.087464 167.188800 5.017911 4.296491 
2.998203 3.764543 4.087180 167.139300 4.992871 4.371957 
2.997891 3.764459 4.087121 167.157900 4.967044 4.396351 
2.997886 3.764714 4.087299 167.114900 4.961425 4.310742 
2.997570 3.764681 4.087434 167.110700 5.004749 4.343387 
2.997416 3.764736 4.087247 167.109900 5.005090 4.311010 
2.997575 3.764675 4.087207 167.123900 5.013612 4.351629 
2.997610 3.764596 4.087083 167.119200 5.003994 4.361236 
2.997380 3.764576 4.086298 167.171900 4.916215 4.400114 
2.997992 3.764603 4.086721 167.141100 4.985228 4.347889 
2.997660 3.764894 4.086342 167.146200 4.999661 4.275370 
2.997102 3.765020 4.085509 167.098300 5.000363 4.290789 
2.996317 3.765286 4.085915 167.081100 5.030915 4.456824 
2.995948 3.765365 4.085471 167.075900 5.074756 4.464735 
2.995589 3.765581 4.085104 167.092300 5.084335 4.314122 
2.994951 3.765249 4.084327 167.065900 4.965417 4.460807 
2.995052 3.765036 4.084927 167.090500 4.958437 4.297506 
2.994534 3.765645 4.084053 167.114800 5.009626 4.390503 
2.994973 3.765820 4.084147 167.092700 5.080175 4.190788 
2.995022 3.765995 4.083389 167.131500 5.064470 4.198421 
2.994975 3.765926 4.083231 167.141300 5.104498 4.205523 
2.994936 3.766176 4.082922 167.140100 5.073591 4.154268 
2.994945 3.766078 4.082490 167.067200 4.938904 4.253579 
2.994379 3.766166 4.082298 167.052900 4.889389 4.400945 
2.994411 3.766528 4.082582 167.069800 4.969430 4.346409 
2.994414 3.766243 4.082563 167.083500 5.031856 4.343820 
2.994218 3.766099 4.082691 167.049500 4.969454 4.334996 
2.993938 3.766332 4.082923 167.076100 4.954592 4.382345 
2.993747 3.766263 4.082881 167.065800 4.911700 4.443461 
2.993804 3.766412 4.083280 167.108700 5.081594 4.338657 
2.994081 3.766591 4.083389 167.123700 5.009068 4.159373 
2.993593 3.766851 4.083673 167.065500 4.998412 4.313637 
2.993756 3.766829 4.083138 167.093600 5.012717 4.282080 
2.994385 3.766628 4.083455 167.086200 4.992580 4.210716 
2.993886 3.766495 4.083219 167.107200 5.036894 4.359784 
2.993933 3.766470 4.083124 167.099600 5.019320 4.353788 
2.993743 3.766320 4.082982 167.070100 4.973216 4.408946 
2.993705 3.766263 4.082859 167.060100 5.016388 4.398293 
2.993648 3.766656 4.082132 167.094300 5.006912 4.381993 
2.993489 3.766521 4.082150 167.081100 4.978920 4.374516 
2.993623 3.766842 4.082571 167.065300 5.064160 4.327274 
2.993706 3.766857 4.082117 167.101900 5.058471 4.322219 
2.993663 3.766693 4.082432 167.066900 5.058219 4.362621 
2.993722 3.766568 4.082751 167.069400 5.112161 4.316975 
2.993701 3.766693 4.082927 167.054600 5.132827 4.309020 
2.994101 3.766834 4.082336 167.120300 5.094357 4.319395 
2.993866 3.766713 4.082311 167.086100 5.066799 4.341145 
2.993685 3.766847 4.082728 167.058200 5.048885 4.329182 
2.993792 3.766864 4.082249 167.101400 5.046700 4.327706 
2.993821 3.766953 4.082348 167.114700 5.057930 4.327297 
2.993771 3.766893 4.082206 167.096200 5.052296 4.313401 
2.993856 3.766787 4.082748 167.070000 5.082071 4.351715 
2.993630 3.766491 4.082227 167.059000 5.015267 4.415040 
2.993727 3.766556 4.082735 167.061100 5.095014 4.337877 
2.993852 3.766649 4.082244 167.097300 5.103000 4.314415 
2.993750 3.766848 4.082359 167.058100 5.051686 4.316838 
2.993616 3.766811 4.081884 167.071600 5.032779 4.349173 
2.993563 3.766809 4.082247 167.043000 5.038768 4.317253 
2.993707 3.766950 4.082208 167.067900 5.061434 4.312622 
2.993847 3.766928 4.081818 167.111700 5.049111 4.316114 
2.993571 3.766790 4.081953 167.074100 5.025791 4.370635 
2.993740 3.766719 4.081829 167.091100 5.017534 4.348112 
2.993853 3.766757 4.082370 167.061400 5.071055 4.340685 
2.993755 3.766898 4.082394 167.070400 5.055591 4.304615 
2.993582 3.767052 4.082429 167.057200 5.080979 4.303477 
2.993572 3.767079 4.082363 167.063900 5.085538 4.294524 
2.993415 3.766971 4.082386 167.041900 5.068269 4.293964 
2.993633 3.766958 4.082178 167.083900 5.062877 4.292936 
2.993525 3.766919 4.082197 167.068000 5.053050 4.331394 
2.993270 3.766752 4.081851 167.091100 5.067815 4.332686 
2.993285 3.766668 4.082198 167.053300 5.105744 4.308413 
2.993130 3.766647 4.081572 167.045500 5.024289 4.390494 
2.993144 3.766992 4.081842 167.049200 5.060847 4.291122 
2.992845 3.767236 4.081536 167.061500 5.099209 4.275210 
2.992447 3.767146 4.081316 167.046000 5.073468 4.312026 
2.992191 3.767132 4.081279 167.055000 5.052379 4.336953 
2.992227 3.767313 4.081733 167.055600 5.091136 4.288005 
2.992064 3.767318 4.081712 167.073700 5.082373 4.266410 
2.991939 3.767219 4.081277 167.078200 5.057191 4.292826 
2.992196 3.767159 4.081685 167.080200 5.058769 4.286704 
2.992089 3.767140 4.081906 167.053600 5.057797 4.272368 
2.992316 3.766886 4.081472 167.058100 5.023954 4.326834 
2.992592 3.766779 4.081383 167.058100 5.018186 4.331156 
2.993098 3.766487 4.081233 167.074300 4.978308 4.345490 
2.993372 3.766526 4.081121 167.095500 4.991104 4.311014 
2.993910 3.766574 4.081474 167.102000 5.056320 4.132535 
2.993898 3.766452 4.081582 167.100100 5.029056 4.175636 
2.993310 3.766653 4.081112 167.048600 5.027353 4.319273 
2.993221 3.766738 4.080850 167.037900 5.066868 4.284671 
2.993218 3.766725 4.080460 167.038700 5.070613 4.288297 
2.993277 3.766566 4.079929 167.008200 5.063617 4.245385 
2.993530 3.766515 4.079542 167.012100 5.064909 4.205641 
2.993667 3.766443 4.079047 167.003800 5.076210 4.210104 
2.994466 3.766095 4.078998 167.052400 5.061665 4.005738 
2.994281 3.766359 4.078517 167.042500 5.060149 4.158139 
2.994764 3.766195 4.078772 167.061700 5.102103 4.021745 
2.994546 3.765968 4.079090 167.053100 5.053698 4.063832 
2.994632 3.765953 4.079362 167.045100 5.064055 4.052706 
2.994132 3.766272 4.079712 167.020600 5.040630 4.223135 
2.994776 3.766083 4.080454 167.088800 5.031199 4.179123 
2.994934 3.766001 4.080772 167.093400 5.020067 4.181847 
2.995106 3.765680 4.080993 167.071300 4.989893 4.170587 
2.995605 3.765762 4.081211 167.102700 5.010700 4.177952 
2.995718 3.765644 4.081461 167.090600 5.010169 4.239843 
